# xmcd
#
# Track frame offsets: 
#        150
#        18339
#        34434
#        50113
#        65946
#        87170
#        107512
#        127569
#        145382
#        164015
#        183987
#        200890
#        217156
#        236493
#
# Disc length: 3437 seconds
#
# Revision: 0
# Processed by: cddbd v1.5.2PL0 Copyright (c) Steve Scherf et al.
# Submitted via: ExactAudioCopy v0.99pb5
#
DISCID=d60d6b0e
DTITLE=Pone Boy - Situation
DYEAR=2009
DGENRE=R&B
TTITLE0=My Bad
TTITLE1=Dance For Me
TTITLE2=Over You
TTITLE3=Let em Knock (ft. NipponDaMic)
TTITLE4=Situation
TTITLE5=Go
TTITLE6=I Should Be The One
TTITLE7=Keep It Simple
TTITLE8=Hit Me
TTITLE9=Ain't No Me
TTITLE10=More Than Friends
TTITLE11=Twenty Questionss
TTITLE12=Lend A Hand
TTITLE13=Give Me Jesus
EXTD=
EXTT0=
EXTT1=
EXTT2=
EXTT3=
EXTT4=
EXTT5=
EXTT6=
EXTT7=
EXTT8=
EXTT9=
EXTT10=
EXTT11=
EXTT12=
EXTT13=
PLAYORDER=
